  0
SECTION
  2
HEADER
  9
$ACADVER
  1
AC1024
  9
$ACADMAINTVER
 70
6
  9
$DWGCODEPAGE
  3
ANSI_1252
  9
$LASTSAVEDBY
  1
ezdxf
  9
$INSBASE
 10
0.0
 20
0.0
 30
0.0
  9
$EXTMIN
 10
1e+20
 20
1e+20
 30
1e+20
  9
$EXTMAX
 10
-1e+20
 20
-1e+20
 30
-1e+20
  9
$LIMMIN
 10
0.0
 20
0.0
  9
$LIMMAX
 10
420.0
 20
297.0
  9
$ORTHOMODE
 70
0
  9
$REGENMODE
 70
1
  9
$FILLMODE
 70
1
  9
$QTEXTMODE
 70
0
  9
$MIRRTEXT
 70
1
  9
$LTSCALE
 40
1.0
  9
$ATTMODE
 70
1
  9
$TEXTSIZE
 40
2.5
  9
$TRACEWID
 40
1.0
  9
$TEXTSTYLE
  7
Standard
  9
$CLAYER
  8
0
  9
$CELTYPE
  6
ByLayer
  9
$CECOLOR
 62
256
  9
$CELTSCALE
 40
1.0
  9
$DISPSILH
 70
0
  9
$DIMSCALE
 40
1.0
  9
$DIMASZ
 40
2.5
  9
$DIMEXO
 40
0.625
  9
$DIMDLI
 40
3.75
  9
$DIMRND
 40
0.0
  9
$DIMDLE
 40
0.0
  9
$DIMEXE
 40
1.25
  9
$DIMTP
 40
0.0
  9
$DIMTM
 40
0.0
  9
$DIMTXT
 40
2.5
  9
$DIMCEN
 40
2.5
  9
$DIMTSZ
 40
0.0
  9
$DIMTOL
 70
0
  9
$DIMLIM
 70
0
  9
$DIMTIH
 70
0
  9
$DIMTOH
 70
0
  9
$DIMSE1
 70
0
  9
$DIMSE2
 70
0
  9
$DIMTAD
 70
1
  9
$DIMZIN
 70
8
  9
$DIMBLK
  1

  9
$DIMASO
 70
1
  9
$DIMSHO
 70
1
  9
$DIMPOST
  1

  9
$DIMAPOST
  1

  9
$DIMALT
 70
0
  9
$DIMALTD
 70
3
  9
$DIMALTF
 40
0.03937007874
  9
$DIMLFAC
 40
1.0
  9
$DIMTOFL
 70
1
  9
$DIMTVP
 40
0.0
  9
$DIMTIX
 70
0
  9
$DIMSOXD
 70
0
  9
$DIMSAH
 70
0
  9
$DIMBLK1
  1

  9
$DIMBLK2
  1

  9
$DIMSTYLE
  2
ISO-25
  9
$DIMCLRD
 70
0
  9
$DIMCLRE
 70
0
  9
$DIMCLRT
 70
0
  9
$DIMTFAC
 40
1.0
  9
$DIMGAP
 40
0.625
  9
$DIMJUST
 70
0
  9
$DIMSD1
 70
0
  9
$DIMSD2
 70
0
  9
$DIMTOLJ
 70
0
  9
$DIMTZIN
 70
8
  9
$DIMALTZ
 70
0
  9
$DIMALTTZ
 70
0
  9
$DIMUPT
 70
0
  9
$DIMDEC
 70
2
  9
$DIMTDEC
 70
2
  9
$DIMALTU
 70
2
  9
$DIMALTTD
 70
3
  9
$DIMTXSTY
  7
Standard
  9
$DIMAUNIT
 70
0
  9
$DIMADEC
 70
0
  9
$DIMALTRND
 40
0.0
  9
$DIMAZIN
 70
0
  9
$DIMDSEP
 70
44
  9
$DIMATFIT
 70
3
  9
$DIMFRAC
 70
0
  9
$DIMLDRBLK
  1

  9
$DIMLUNIT
 70
2
  9
$DIMLWD
 70
-2
  9
$DIMLWE
 70
-2
  9
$DIMTMOVE
 70
0
  9
$DIMFXL
 40
1.0
  9
$DIMFXLON
 70
0
  9
$DIMJOGANG
 40
0.785398163397
  9
$DIMTFILL
 70
0
  9
$DIMTFILLCLR
 70
0
  9
$DIMARCSYM
 70
0
  9
$DIMLTYPE
  6

  9
$DIMLTEX1
  6

  9
$DIMLTEX2
  6

  9
$DIMTXTDIRECTION
 70
0
  9
$LUNITS
 70
2
  9
$LUPREC
 70
4
  9
$SKETCHINC
 40
1.0
  9
$FILLETRAD
 40
10.0
  9
$AUNITS
 70
0
  9
$AUPREC
 70
2
  9
$MENU
  1
.
  9
$ELEVATION
 40
0.0
  9
$PELEVATION
 40
0.0
  9
$THICKNESS
 40
0.0
  9
$LIMCHECK
 70
0
  9
$CHAMFERA
 40
0.0
  9
$CHAMFERB
 40
0.0
  9
$CHAMFERC
 40
0.0
  9
$CHAMFERD
 40
0.0
  9
$SKPOLY
 70
0
  9
$TDCREATE
 40
2461218.940300926
  9
$TDUCREATE
 40
2458532.153996898
  9
$TDUPDATE
 40
2461218.940300926
  9
$TDUUPDATE
 40
2458532.1544311
  9
$TDINDWG
 40
0.0
  9
$TDUSRTIMER
 40
0.0
  9
$USRTIMER
 70
1
  9
$ANGBASE
 50
0.0
  9
$ANGDIR
 70
0
  9
$PDMODE
 70
0
  9
$PDSIZE
 40
0.0
  9
$PLINEWID
 40
0.0
  9
$SPLFRAME
 70
0
  9
$SPLINETYPE
 70
6
  9
$SPLINESEGS
 70
8
  9
$HANDSEED
  5
44
  9
$SURFTAB1
 70
6
  9
$SURFTAB2
 70
6
  9
$SURFTYPE
 70
6
  9
$SURFU
 70
6
  9
$SURFV
 70
6
  9
$UCSBASE
  2

  9
$UCSNAME
  2

  9
$UCSORG
 10
0.0
 20
0.0
 30
0.0
  9
$UCSXDIR
 10
1.0
 20
0.0
 30
0.0
  9
$UCSYDIR
 10
0.0
 20
1.0
 30
0.0
  9
$UCSORTHOREF
  2

  9
$UCSORTHOVIEW
 70
0
  9
$UCSORGTOP
 10
0.0
 20
0.0
 30
0.0
  9
$UCSORGBOTTOM
 10
0.0
 20
0.0
 30
0.0
  9
$UCSORGLEFT
 10
0.0
 20
0.0
 30
0.0
  9
$UCSORGRIGHT
 10
0.0
 20
0.0
 30
0.0
  9
$UCSORGFRONT
 10
0.0
 20
0.0
 30
0.0
  9
$UCSORGBACK
 10
0.0
 20
0.0
 30
0.0
  9
$PUCSBASE
  2

  9
$PUCSNAME
  2

  9
$PUCSORG
 10
0.0
 20
0.0
 30
0.0
  9
$PUCSXDIR
 10
1.0
 20
0.0
 30
0.0
  9
$PUCSYDIR
 10
0.0
 20
1.0
 30
0.0
  9
$PUCSORTHOREF
  2

  9
$PUCSORTHOVIEW
 70
0
  9
$PUCSORGTOP
 10
0.0
 20
0.0
 30
0.0
  9
$PUCSORGBOTTOM
 10
0.0
 20
0.0
 30
0.0
  9
$PUCSORGLEFT
 10
0.0
 20
0.0
 30
0.0
  9
$PUCSORGRIGHT
 10
0.0
 20
0.0
 30
0.0
  9
$PUCSORGFRONT
 10
0.0
 20
0.0
 30
0.0
  9
$PUCSORGBACK
 10
0.0
 20
0.0
 30
0.0
  9
$USERI1
 70
0
  9
$USERI2
 70
0
  9
$USERI3
 70
0
  9
$USERI4
 70
0
  9
$USERI5
 70
0
  9
$USERR1
 40
0.0
  9
$USERR2
 40
0.0
  9
$USERR3
 40
0.0
  9
$USERR4
 40
0.0
  9
$USERR5
 40
0.0
  9
$WORLDVIEW
 70
1
  9
$SHADEDGE
 70
3
  9
$SHADEDIF
 70
70
  9
$TILEMODE
 70
1
  9
$MAXACTVP
 70
64
  9
$PINSBASE
 10
0.0
 20
0.0
 30
0.0
  9
$PLIMCHECK
 70
0
  9
$PEXTMIN
 10
1e+20
 20
1e+20
 30
1e+20
  9
$PEXTMAX
 10
-1e+20
 20
-1e+20
 30
-1e+20
  9
$PLIMMIN
 10
0.0
 20
0.0
  9
$PLIMMAX
 10
420.0
 20
297.0
  9
$UNITMODE
 70
0
  9
$VISRETAIN
 70
1
  9
$PLINEGEN
 70
0
  9
$PSLTSCALE
 70
1
  9
$TREEDEPTH
 70
3020
  9
$CMLSTYLE
  2
Standard
  9
$CMLJUST
 70
0
  9
$CMLSCALE
 40
20.0
  9
$PROXYGRAPHICS
 70
1
  9
$MEASUREMENT
 70
1
  9
$CELWEIGHT
370
-1
  9
$ENDCAPS
280
0
  9
$JOINSTYLE
280
0
  9
$LWDISPLAY
290
0
  9
$INSUNITS
 70
4
  9
$HYPERLINKBASE
  1

  9
$STYLESHEET
  1

  9
$XEDIT
290
1
  9
$CEPSNTYPE
380
0
  9
$PSTYLEMODE
290
1
  9
$FINGERPRINTGUID
  2
{E65B0F57-B8E3-4E79-8304-6574D5EEECC4}
  9
$VERSIONGUID
  2
{35130703-A4A0-438C-93E5-60427F012AB0}
  9
$EXTNAMES
290
1
  9
$PSVPSCALE
 40
0.0
  9
$OLESTARTUP
290
0
  9
$SORTENTS
280
127
  9
$INDEXCTL
280
0
  9
$HIDETEXT
280
1
  9
$XCLIPFRAME
280
1
  9
$HALOGAP
280
0
  9
$OBSCOLOR
 70
257
  9
$OBSLTYPE
280
0
  9
$INTERSECTIONDISPLAY
280
0
  9
$INTERSECTIONCOLOR
 70
257
  9
$DIMASSOC
280
2
  9
$PROJECTNAME
  1

  9
$CAMERADISPLAY
290
0
  9
$LENSLENGTH
 40
50.0
  9
$CAMERAHEIGHT
 40
0.0
  9
$STEPSPERSEC
 40
24.0
  9
$STEPSIZE
 40
100.0
  9
$3DDWFPREC
 40
2.0
  9
$PSOLWIDTH
 40
0.005
  9
$PSOLHEIGHT
 40
0.08
  9
$LOFTANG1
 40
1.570796326795
  9
$LOFTANG2
 40
1.570796326795
  9
$LOFTMAG1
 40
0.0
  9
$LOFTMAG2
 40
0.0
  9
$LOFTPARAM
 70
7
  9
$LOFTNORMALS
280
1
  9
$LATITUDE
 40
37.795
  9
$LONGITUDE
 40
-122.394
  9
$NORTHDIRECTION
 40
0.0
  9
$TIMEZONE
 70
-8000
  9
$LIGHTGLYPHDISPLAY
280
1
  9
$TILEMODELIGHTSYNCH
280
1
  9
$CMATERIAL
347
20
  9
$SOLIDHIST
280
0
  9
$SHOWHIST
280
1
  9
$DWFFRAME
280
2
  9
$DGNFRAME
280
2
  9
$REALWORLDSCALE
290
1
  9
$INTERFERECOLOR
 62
256
  9
$CSHADOW
280
0
  9
$SHADOWPLANELOCATION
 40
0.0
  0
ENDSEC
  0
SECTION
  2
CLASSES
  0
CLASS
  1
ACDBDICTIONARYWDFLT
  2
AcDbDictionaryWithDefault
  3
ObjectDBX Classes
 90
0
 91
0
280
0
281
0
  0
CLASS
  1
SUN
  2
AcDbSun
  3
SCENEOE
 90
1153
 91
0
280
0
281
0
  0
CLASS
  1
VISUALSTYLE
  2
AcDbVisualStyle
  3
ObjectDBX Classes
 90
4095
 91
0
280
0
281
0
  0
CLASS
  1
MATERIAL
  2
AcDbMaterial
  3
ObjectDBX Classes
 90
1153
 91
0
280
0
281
0
  0
CLASS
  1
SCALE
  2
AcDbScale
  3
ObjectDBX Classes
 90
1153
 91
0
280
0
281
0
  0
CLASS
  1
TABLESTYLE
  2
AcDbTableStyle
  3
ObjectDBX Classes
 90
4095
 91
0
280
0
281
0
  0
CLASS
  1
MLEADERSTYLE
  2
AcDbMLeaderStyle
  3
ACDB_MLEADERSTYLE_CLASS
 90
4095
 91
0
280
0
281
0
  0
CLASS
  1
DICTIONARYVAR
  2
AcDbDictionaryVar
  3
ObjectDBX Classes
 90
0
 91
0
280
0
281
0
  0
CLASS
  1
CELLSTYLEMAP
  2
AcDbCellStyleMap
  3
ObjectDBX Classes
 90
1152
 91
0
280
0
281
0
  0
CLASS
  1
MENTALRAYRENDERSETTINGS
  2
AcDbMentalRayRenderSettings
  3
SCENEOE
 90
1024
 91
0
280
0
281
0
  0
CLASS
  1
ACDBDETAILVIEWSTYLE
  2
AcDbDetailViewStyle
  3
ObjectDBX Classes
 90
1025
 91
0
280
0
281
0
  0
CLASS
  1
ACDBSECTIONVIEWSTYLE
  2
AcDbSectionViewStyle
  3
ObjectDBX Classes
 90
1025
 91
0
280
0
281
0
  0
CLASS
  1
RASTERVARIABLES
  2
AcDbRasterVariables
  3
ISM
 90
0
 91
0
280
0
281
0
  0
CLASS
  1
ACDBPLACEHOLDER
  2
AcDbPlaceHolder
  3
ObjectDBX Classes
 90
0
 91
0
280
0
281
0
  0
CLASS
  1
LAYOUT
  2
AcDbLayout
  3
ObjectDBX Classes
 90
0
 91
0
280
0
281
0
  0
ENDSEC
  0
SECTION
  2
TABLES
  0
TABLE
  2
VPORT
  5
8
330
0
100
AcDbSymbolTable
 70
1
  0
VPORT
  5
23
330
8
100
AcDbSymbolTableRecord
100
AcDbViewportTableRecord
  2
*Active
 70
0
 10
0.0
 20
0.0
 11
1.0
 21
1.0
 12
0.0
 22
0.0
 13
0.0
 23
0.0
 14
0.5
 24
0.5
 15
0.5
 25
0.5
 16
0.0
 26
0.0
 36
1.0
 17
0.0
 27
0.0
 37
0.0
 40
1000.0
 41
1.34
 42
50.0
 43
0.0
 44
0.0
 50
0.0
 51
0.0
 71
0
 72
1000
 73
1
 74
3
 75
0
 76
0
 77
0
 78
0
281
0
 65
0
146
0.0
  0
ENDTAB
  0
TABLE
  2
LTYPE
  5
2
330
0
100
AcDbSymbolTable
 70
3
  0
LTYPE
  5
24
330
2
100
AcDbSymbolTableRecord
100
AcDbLinetypeTableRecord
  2
ByBlock
 70
0
  3

 72
65
 73
0
 40
0.0
  0
LTYPE
  5
25
330
2
100
AcDbSymbolTableRecord
100
AcDbLinetypeTableRecord
  2
ByLayer
 70
0
  3

 72
65
 73
0
 40
0.0
  0
LTYPE
  5
26
330
2
100
AcDbSymbolTableRecord
100
AcDbLinetypeTableRecord
  2
Continuous
 70
0
  3

 72
65
 73
0
 40
0.0
  0
ENDTAB
  0
TABLE
  2
LAYER
  5
1
330
0
100
AcDbSymbolTable
 70
3
  0
LAYER
  5
27
330
1
100
AcDbSymbolTableRecord
100
AcDbLayerTableRecord
  2
0
 70
0
 62
7
  6
Continuous
370
-3
390
13
347
21
  0
LAYER
  5
28
330
1
100
AcDbSymbolTableRecord
100
AcDbLayerTableRecord
  2
Defpoints
 70
0
 62
7
  6
Continuous
290
0
370
-3
390
13
347
21
  0
LAYER
  5
2F
330
1
100
AcDbSymbolTableRecord
100
AcDbLayerTableRecord
  2
CORTE
 70
0
 62
1
  6
Continuous
370
-3
390
13
347
21
  0
ENDTAB
  0
TABLE
  2
STYLE
  5
5
330
0
100
AcDbSymbolTable
 70
1
  0
STYLE
  5
29
330
5
100
AcDbSymbolTableRecord
100
AcDbTextStyleTableRecord
  2
Standard
 70
0
 40
0.0
 41
1.0
 50
0.0
 71
0
 42
2.5
  3
txt
  4

  0
ENDTAB
  0
TABLE
  2
VIEW
  5
7
330
0
100
AcDbSymbolTable
 70
0
  0
ENDTAB
  0
TABLE
  2
UCS
  5
6
330
0
100
AcDbSymbolTable
 70
0
  0
ENDTAB
  0
TABLE
  2
APPID
  5
3
330
0
100
AcDbSymbolTable
 70
3
  0
APPID
  5
2A
330
3
100
AcDbSymbolTableRecord
100
AcDbRegAppTableRecord
  2
ACAD
 70
0
  0
APPID
  5
41
330
3
100
AcDbSymbolTableRecord
100
AcDbRegAppTableRecord
  2
HATCHBACKGROUNDCOLOR
 70
0
  0
APPID
  5
42
330
3
100
AcDbSymbolTableRecord
100
AcDbRegAppTableRecord
  2
EZDXF
 70
0
  0
ENDTAB
  0
TABLE
  2
DIMSTYLE
  5
4
330
0
100
AcDbSymbolTable
 70
1
100
AcDbDimStyleTable
  0
DIMSTYLE
105
2B
330
4
100
AcDbSymbolTableRecord
100
AcDbDimStyleTableRecord
  2
Standard
 70
0
 40
1.0
 41
2.5
 42
0.625
 43
3.75
 44
1.25
 45
0.0
 46
0.0
 47
0.0
 48
0.0
 49
2.5
140
2.5
141
2.5
142
0.0
143
0.03937007874
144
1.0
145
0.0
146
1.0
147
0.625
148
0.0
 69
0
 70
0
 71
0
 72
0
 73
0
 74
0
 75
0
 76
0
 77
1
 78
8
 79
3
170
0
171
3
172
1
173
0
174
0
175
0
176
0
177
0
178
0
179
2
271
2
272
2
273
2
274
3
275
0
276
0
277
2
278
44
279
0
280
0
281
0
282
0
283
0
284
8
285
0
286
0
288
0
289
3
290
0
371
-2
372
-2
  0
ENDTAB
  0
TABLE
  2
BLOCK_RECORD
  5
9
330
0
100
AcDbSymbolTable
 70
2
  0
BLOCK_RECORD
  5
17
330
9
100
AcDbSymbolTableRecord
100
AcDbBlockTableRecord
  2
*Model_Space
340
1A
 70
0
280
1
281
0
  0
BLOCK_RECORD
  5
1B
330
9
100
AcDbSymbolTableRecord
100
AcDbBlockTableRecord
  2
*Paper_Space
340
1E
 70
0
280
1
281
0
  0
ENDTAB
  0
ENDSEC
  0
SECTION
  2
BLOCKS
  0
BLOCK
  5
18
330
17
100
AcDbEntity
  8
0
100
AcDbBlockBegin
  2
*Model_Space
 70
0
 10
0.0
 20
0.0
 30
0.0
  3
*Model_Space
  1

  0
ENDBLK
  5
19
330
17
100
AcDbEntity
  8
0
100
AcDbBlockEnd
  0
BLOCK
  5
1C
330
1B
100
AcDbEntity
  8
0
100
AcDbBlockBegin
  2
*Paper_Space
 70
0
 10
0.0
 20
0.0
 30
0.0
  3
*Paper_Space
  1

  0
ENDBLK
  5
1D
330
1B
100
AcDbEntity
  8
0
100
AcDbBlockEnd
  0
ENDSEC
  0
SECTION
  2
ENTITIES
  0
LWPOLYLINE
  5
30
330
17
100
AcDbEntity
  8
CORTE
100
AcDbPolyline
 90
18
 70
1
 10
588.229456
 20
5160.263999999999
 10
421.743886
 20
5160.263999999999
 10
391.146538
 20
5121.567354
 10
396.54607000000004
 20
5063.072424
 10
348.850204
 20
5090.970006
 10
294.854884
 20
5070.2718
 10
277.756366
 20
5081.970785999999
 10
276.856444
 20
5032.475076
 10
257.05816
 20
4977.579834
 10
292.155118
 20
4937.983266
 10
253.458472
 20
4882.188102
 10
221.06128
 20
4926.284279999999
 10
192.263776
 20
4943.382798
 10
50.976022
 20
4924.484436
 10
48.276256
 20
4888.487556
 10
5.979921999999999
 20
4844.391377999999
 10
5.08
 20
4261.241921999999
 10
588.229456
 20
4261.241921999999
  0
LWPOLYLINE
  5
31
330
17
100
AcDbEntity
  8
CORTE
100
AcDbPolyline
 90
19
 70
1
 10
580.73544
 20
4636.361567999999
 10
591.2357999999999
 20
4531.357967999999
 10
580.73544
 20
4464.155664
 10
561.834792
 20
4460.655543999999
 10
549.2343599999999
 20
4438.9547999999995
 10
556.2346
 20
4412.353888000001
 10
539.4340239999999
 20
4382.252856
 10
538.734
 20
4270.249016
 10
1238.0579759999998
 20
4270.249016
 10
1238.0579759999998
 20
4823.968
 10
859.3449919999998
 20
4823.968
 10
836.2442
 20
4808.567471999999
 10
817.3435519999999
 20
4772.166224
 10
759.9415839999999
 20
4781.266535999999
 10
736.140768
 20
4767.96608
 10
708.839832
 20
4668.562672
 10
714.4400239999999
 20
4649.662024
 10
701.8395919999999
 20
4634.261495999999
 10
617.1366879999999
 20
4655.262216
  0
LWPOLYLINE
  5
32
330
17
100
AcDbEntity
  8
CORTE
100
AcDbPolyline
 90
14
 70
1
 10
724.015824
 20
4323.588
 10
661.394664
 20
4254.704724
 10
647.9758439999999
 20
4192.083564
 10
670.3405439999999
 20
4160.772983999999
 10
664.9730159999999
 20
4140.197459999999
 10
699.861948
 20
4109.781468
 10
670.3405439999999
 20
4087.4167679999996
 10
666.7621919999999
 20
4063.2628919999997
 10
554.044104
 20
3959.490684
 10
512.8930559999999
 20
3904.0262279999997
 10
503.05258799999996
 20
3868.2427079999993
 10
502.15799999999996
 20
3429.894588
 10
981.657168
 20
3429.894588
 10
981.657168
 20
4323.588
  0
LWPOLYLINE
  5
33
330
17
100
AcDbEntity
  8
CORTE
100
AcDbPolyline
 90
10
 70
1
 10
287.181798
 20
4026.408
 10
233.18647799999997
 20
3971.5127579999994
 10
187.29045599999998
 20
3890.519778
 10
189.0903
 20
3868.9216499999998
 10
226.887024
 20
3829.325082
 10
208.88858399999998
 20
3757.331322
 10
55.001922
 20
3742.0326479999994
 10
54.102
 20
3127.3859219999995
 10
659.749506
 20
3127.3859219999995
 10
659.749506
 20
4026.408
  0
LWPOLYLINE
  5
34
330
17
100
AcDbEntity
  8
CORTE
100
AcDbPolyline
 90
16
 70
1
 10
993.0343359999998
 20
3470.6559999999995
 10
957.333112
 20
3445.455136
 10
931.432224
 20
3409.7539119999997
 10
935.632368
 20
3368.452496
 10
907.631408
 20
3271.8491839999997
 10
878.9304239999998
 20
3245.948296
 10
881.0304959999999
 20
3196.9466159999997
 10
844.6292479999998
 20
3124.844144
 10
845.3292720000001
 20
3069.5422479999997
 10
871.2301599999998
 20
3007.9401359999997
 10
833.428864
 20
2977.13908
 10
834.828912
 20
2873.535528
 10
808.9280239999999
 20
2856.0349279999996
 10
808.228
 20
2771.332024
 10
1249.2431199999999
 20
2771.332024
 10
1249.2431199999999
 20
3470.6559999999995
  0
LWPOLYLINE
  5
35
330
17
100
AcDbEntity
  8
CORTE
100
AcDbPolyline
 90
23
 70
1
 10
738.833676
 20
3388.6139999999996
 10
565.353708
 20
3388.6139999999996
 10
531.7769399999999
 20
3368.3280360000003
 10
512.190492
 20
3340.3473959999997
 10
514.2890399999999
 20
3285.085632
 10
523.3827479999999
 20
3246.612252
 10
554.8609680000001
 20
3221.4296759999997
 10
512.190492
 20
3151.478076
 10
445.736472
 20
3101.112924
 10
420.553896
 20
3122.0984039999994
 10
395.37131999999997
 20
3124.896468
 10
333.813912
 20
3065.4376079999997
 10
337.311492
 20
3092.0192159999997
 10
320.523108
 20
3110.9061479999996
 10
302.335692
 20
3099.014376
 10
314.227464
 20
3052.146804
 10
279.95118
 20
3014.3729399999997
 10
266.660376
 20
2971.0029480000003
 10
286.24682400000006
 20
2931.130536
 10
233.783124
 20
2887.7605439999998
 10
207.201516
 20
2838.7944239999997
 10
206.502
 20
2689.797516
 10
738.833676
 20
2689.797516
  0
LWPOLYLINE
  5
36
330
17
100
AcDbEntity
  8
CORTE
100
AcDbPolyline
 90
18
 70
1
 10
982.0772839999998
 20
2767.8379999999997
 10
803.366948
 20
2767.8379999999997
 10
739.5418279999999
 20
2744.701394
 10
699.651128
 20
2701.619438
 10
682.09922
 20
2644.974644
 10
693.268616
 20
2590.723292
 10
685.290476
 20
2553.226034
 10
705.2358260000001
 20
2514.133148
 10
774.645644
 20
2446.318958
 10
729.9680599999999
 20
2427.171422
 10
658.1647999999999
 20
2343.400952
 10
667.7385679999999
 20
2310.6905779999997
 10
641.410706
 20
2283.564902
 10
608.700332
 20
2269.20425
 10
541.683956
 20
2265.21518
 10
498.6019999999999
 20
2241.28076
 10
498.6019999999999
 20
1970.821814
 10
982.0772839999998
 20
1970.821814
  0
LWPOLYLINE
  5
37
330
17
100
AcDbEntity
  8
CORTE
100
AcDbPolyline
 90
26
 70
1
 10
653.93824
 20
2731.008
 10
388.62914399999994
 20
2724.00776
 10
385.12902399999996
 20
2710.00728
 10
415.93008
 20
2700.206944
 10
407.529792
 20
2673.6060319999997
 10
355.72801599999997
 20
2686.206464
 10
303.92624
 20
2679.906248
 10
259.124704
 20
2659.605552
 10
221.32340799999997
 20
2626.704424
 10
166.02151199999997
 20
2537.1013519999997
 10
168.821608
 20
2500.00008
 10
194.722496
 20
2460.098712
 10
167.42156
 20
2448.198304
 10
150.62098399999996
 20
2463.5988319999997
 10
157.62122399999998
 20
2427.897608
 10
192.622424
 20
2400.5966719999997
 10
224.82352799999998
 20
2411.7970559999994
 10
245.124224
 20
2444.698184
 10
267.524992
 20
2429.99768
 10
227.62362399999995
 20
2394.2964559999996
 10
231.12374399999996
 20
2375.3958079999998
 10
194.722496
 20
2309.593552
 10
152.021032
 20
2280.192544
 10
121.91999999999999
 20
2279.4925200000002
 10
121.91999999999999
 20
2031.6840240000004
 10
653.93824
 20
2031.6840240000004
  0
LWPOLYLINE
  5
38
330
17
100
AcDbEntity
  8
CORTE
100
AcDbPolyline
 90
14
 70
1
 10
996.576112
 20
2213.8639999999996
 10
943.0715199999999
 20
2184.3166880000003
 10
918.3156640000001
 20
2139.596432
 10
927.898576
 20
2074.1132
 10
915.919936
 20
2054.1488000000004
 10
919.912816
 20
2030.1915199999999
 10
936.6829119999999
 20
2008.629968
 10
958.244464
 20
2002.24136
 10
979.806016
 20
1956.7225279999996
 10
910.3299039999999
 20
1908.009392
 10
828.0765759999998
 20
1783.431536
 10
827.2779999999999
 20
1416.086576
 10
1247.328976
 20
1416.086576
 10
1247.328976
 20
2213.8639999999996
  0
LWPOLYLINE
  5
39
330
17
100
AcDbEntity
  8
CORTE
100
AcDbPolyline
 90
19
 70
1
 10
532.93264
 20
2066.544
 10
512.94284
 20
2044.155424
 10
475.3620159999999
 20
2038.55828
 10
440.97956
 20
2012.971336
 10
436.18200799999994
 20
1988.983576
 10
414.59302399999996
 20
1969.793368
 10
416.192208
 20
1939.408872
 10
400.200368
 20
1925.0162159999998
 10
412.194248
 20
1855.4517119999998
 10
430.584864
 20
1820.2696639999997
 10
488.155488
 20
1771.4945519999997
 10
530.5338639999999
 20
1761.0998559999998
 10
479.359976
 20
1738.7112799999998
 10
433.783232
 20
1678.7418799999996
 10
439.38037599999996
 20
1664.3492239999998
 10
397.80159199999997
 20
1546.8092
 10
397.002
 20
1267.7515919999996
 10
791.2008559999999
 20
1267.7515919999996
 10
791.2008559999999
 20
2066.544
  0
LWPOLYLINE
  5
3A
330
17
100
AcDbEntity
  8
CORTE
100
AcDbPolyline
 90
10
 70
1
 10
149.64029
 20
2040.3819999999998
 10
102.95000999999998
 20
2011.6495199999997
 10
82.29853999999999
 20
1969.44869
 10
91.27744
 20
1882.35336
 10
138.86561
 20
1823.09262
 10
72.42174999999999
 20
1794.3601399999998
 10
5.9778899999999995
 20
1693.7964599999998
 10
5.08
 20
1143.38989
 10
381.29591
 20
1143.38989
 10
381.29591
 20
2040.3819999999998
  0
LWPOLYLINE
  5
3B
330
17
100
AcDbEntity
  8
CORTE
100
AcDbPolyline
 90
10
 70
1
 10
1159.9814239999998
 20
1430.528
 10
1000.862616
 20
1427.3296319999997
 10
960.8830159999999
 20
1404.941056
 10
945.690768
 20
1380.9532960000001
 10
904.111984
 20
1414.53616
 10
852.138504
 20
1420.1333039999997
 10
812.9584959999999
 20
1403.341872
 10
783.3735919999999
 20
1365.761048
 10
782.574
 20
631.7355920000002
 10
1159.9814239999998
 20
631.7355920000002
  0
LWPOLYLINE
  5
3C
330
17
100
AcDbEntity
  8
CORTE
100
AcDbPolyline
 90
16
 70
1
 10
649.637004
 20
1274.0639999999999
 10
545.6570240000001
 20
1274.0639999999999
 10
476.87026799999995
 20
1257.2672339999997
 10
450.47535
 20
1230.07247
 10
456.87411800000007
 20
1149.2880239999997
 10
424.880278
 20
1160.4858680000002
 10
428.079662
 20
1171.683712
 10
412.88258799999994
 20
1165.2849440000002
 10
387.2875159999999
 20
1174.8830959999998
 10
312.901838
 20
1136.490488
 10
288.906458
 20
1102.09711
 10
276.908768
 20
1106.8961860000002
 10
287.306766
 20
1086.900036
 10
271.30984599999994
 20
1063.7045019999998
 10
270.51
 20
475.0178460000003
 10
649.637004
 20
475.0178460000003
  0
LWPOLYLINE
  5
3D
330
17
100
AcDbEntity
  8
CORTE
100
AcDbPolyline
 90
14
 70
1
 10
682.248064
 20
755.904
 10
660.649936
 20
726.5065479999996
 10
628.8526919999998
 20
711.5078479999999
 10
611.4542
 20
639.5140880000001
 10
634.252224
 20
592.1181959999997
 10
632.4523800000001
 20
562.1207960000002
 10
687.6475959999999
 20
520.1244360000001
 10
608.4544599999999
 20
505.12573600000024
 10
596.4555
 20
484.1275559999998
 10
545.45992
 20
455.33005199999974
 10
522.061948
 20
416.333432
 10
521.462
 20
156.55594800000023
 10
924.6270559999999
 20
156.55594800000023
 10
924.6270559999999
 20
755.904
  0
LWPOLYLINE
  5
3E
330
17
100
AcDbEntity
  8
CORTE
100
AcDbPolyline
 90
21
 70
1
 10
304.31739999999996
 20
805.18
 10
226.7077
 20
805.18
 10
166.7002
 20
754.7736999999997
 10
161.8996
 20
728.3703999999996
 10
167.50029999999998
 20
713.1685
 10
204.30489999999998
 20
696.3663999999997
 10
197.10399999999998
 20
609.9556000000003
 10
181.10199999999998
 20
614.7561999999998
 10
153.8986
 20
641.9596000000004
 10
112.29339999999998
 20
642.7596999999997
 10
39.4843
 20
576.3513999999996
 10
38.6842
 20
545.9476000000003
 10
71.4883
 20
514.7436999999998
 10
90.69069999999999
 20
480.33939999999967
 10
81.88959999999999
 20
465.9376000000004
 10
41.0845
 20
440.33439999999956
 10
8.2804
 20
357.12399999999997
 10
16.281399999999998
 20
345.1225
 10
5.8801
 20
293.91610000000037
 10
5.08
 20
5.880100000000369
 10
304.31739999999996
 20
5.880100000000369
  0
LWPOLYLINE
  5
3F
330
17
100
AcDbEntity
  8
CORTE
100
AcDbPolyline
 90
13
 70
1
 10
1193.9564639999999
 20
644.144
 10
1117.763068
 20
644.144
 10
1010.9723240000001
 20
608.1471199999996
 10
954.577212
 20
568.5505519999997
 10
932.979084
 20
573.3501359999999
 10
931.7791880000001
 20
545.1525800000001
 10
947.9777839999999
 20
539.1531000000003
 10
942.578252
 20
475.55861199999964
 10
890.982724
 20
431.16246000000035
 10
866.9848039999999
 20
467.75928799999997
 10
853.186
 20
470.7590280000003
 10
853.186
 20
44.79594800000025
 10
1193.9564639999999
 20
44.79594800000025
  0
LWPOLYLINE
  5
40
330
17
100
AcDbEntity
  8
CORTE
100
AcDbPolyline
 90
15
 70
1
 10
1075.6676479999999
 20
4270.755999999999
 10
1055.366952
 20
4252.555375999999
 10
1041.3664720000002
 20
4225.954464
 10
1009.1653679999998
 20
4208.453864
 10
1002.865152
 20
4192.353312
 10
1009.1653679999998
 20
4161.552255999999
 10
1056.0669759999998
 20
4111.850551999999
 10
1032.9661839999999
 20
4084.5496160000002
 10
991.6647679999999
 20
4077.549376
 10
974.8641919999999
 20
4058.6487279999997
 10
984.6645279999999
 20
4021.547456
 10
969.9640239999999
 20
3990.7464
 10
969.2639999999999
 20
3571.432024
 10
1203.77204
 20
3571.432024
 10
1203.77204
 20
4270.755999999999
  0
ENDSEC
  0
SECTION
  2
OBJECTS
  0
DICTIONARY
  5
A
330
0
100
AcDbDictionary
281
1
  3
ACAD_COLOR
350
B
  3
ACAD_GROUP
350
C
  3
ACAD_LAYOUT
350
D
  3
ACAD_MATERIAL
350
E
  3
ACAD_MLEADERSTYLE
350
F
  3
ACAD_MLINESTYLE
350
10
  3
ACAD_PLOTSETTINGS
350
11
  3
ACAD_PLOTSTYLENAME
350
12
  3
ACAD_SCALELIST
350
14
  3
ACAD_TABLESTYLE
350
15
  3
ACAD_VISUALSTYLE
350
16
  3
EZDXF_META
350
2D
  0
DICTIONARY
  5
B
330
A
100
AcDbDictionary
281
1
  0
DICTIONARY
  5
C
330
A
100
AcDbDictionary
281
1
  0
DICTIONARY
  5
D
330
A
100
AcDbDictionary
281
1
  3
Model
350
1A
  3
Layout1
350
1E
  0
DICTIONARY
  5
E
330
A
100
AcDbDictionary
281
1
  3
ByBlock
350
1F
  3
ByLayer
350
20
  3
Global
350
21
  0
DICTIONARY
  5
F
330
A
100
AcDbDictionary
281
1
  3
Standard
350
2C
  0
DICTIONARY
  5
10
330
A
100
AcDbDictionary
281
1
  3
Standard
350
22
  0
DICTIONARY
  5
11
330
A
100
AcDbDictionary
281
1
  0
ACDBDICTIONARYWDFLT
  5
12
330
A
100
AcDbDictionary
281
1
  3
Normal
350
13
100
AcDbDictionaryWithDefault
340
13
  0
ACDBPLACEHOLDER
  5
13
330
12
  0
DICTIONARY
  5
14
330
A
100
AcDbDictionary
281
1
  0
DICTIONARY
  5
15
330
A
100
AcDbDictionary
281
1
  0
DICTIONARY
  5
16
330
A
100
AcDbDictionary
281
1
  0
LAYOUT
  5
1A
330
D
100
AcDbPlotSettings
  1

  4
A3
  6

 40
7.5
 41
20.0
 42
7.5
 43
20.0
 44
420.0
 45
297.0
 46
0.0
 47
0.0
 48
0.0
 49
0.0
140
0.0
141
0.0
142
1.0
143
1.0
 70
1024
 72
1
 73
0
 74
5
  7

 75
16
 76
0
 77
2
 78
300
147
1.0
148
0.0
149
0.0
100
AcDbLayout
  1
Model
 70
1
 71
0
 10
0.0
 20
0.0
 11
420.0
 21
297.0
 12
0.0
 22
0.0
 32
0.0
 14
1e+20
 24
1e+20
 34
1e+20
 15
-1e+20
 25
-1e+20
 35
-1e+20
146
0.0
 13
0.0
 23
0.0
 33
0.0
 16
1.0
 26
0.0
 36
0.0
 17
0.0
 27
1.0
 37
0.0
 76
1
330
17
  0
LAYOUT
  5
1E
330
D
100
AcDbPlotSettings
  1

  4
A3
  6

 40
7.5
 41
20.0
 42
7.5
 43
20.0
 44
420.0
 45
297.0
 46
0.0
 47
0.0
 48
0.0
 49
0.0
140
0.0
141
0.0
142
1.0
143
1.0
 70
0
 72
1
 73
0
 74
5
  7

 75
16
 76
0
 77
2
 78
300
147
1.0
148
0.0
149
0.0
100
AcDbLayout
  1
Layout1
 70
1
 71
1
 10
0.0
 20
0.0
 11
420.0
 21
297.0
 12
0.0
 22
0.0
 32
0.0
 14
1e+20
 24
1e+20
 34
1e+20
 15
-1e+20
 25
-1e+20
 35
-1e+20
146
0.0
 13
0.0
 23
0.0
 33
0.0
 16
1.0
 26
0.0
 36
0.0
 17
0.0
 27
1.0
 37
0.0
 76
1
330
1B
  0
MATERIAL
  5
1F
102
{ACAD_REACTORS
330
E
102
}
330
E
100
AcDbMaterial
  1
ByBlock
  2

 70
0
 40
1.0
 71
1
 41
1.0
 91
-1023410177
 42
1.0
 72
1
  3

 73
1
 74
1
 75
1
 44
0.5
 73
0
 45
1.0
 46
1.0
 77
1
  4

 78
1
 79
1
170
1
 48
1.0
171
1
  6

172
1
173
1
174
1
140
1.0
141
1.0
175
1
  7

176
1
177
1
178
1
143
1.0
179
1
  8

270
1
271
1
272
1
145
1.0
146
1.0
273
1
  9

274
1
275
1
276
1
 42
1.0
 72
1
  3

 73
1
 74
1
 75
1
 94
63
  0
MATERIAL
  5
20
102
{ACAD_REACTORS
330
E
102
}
330
E
100
AcDbMaterial
  1
ByLayer
  2

 70
0
 40
1.0
 71
1
 41
1.0
 91
-1023410177
 42
1.0
 72
1
  3

 73
1
 74
1
 75
1
 44
0.5
 73
0
 45
1.0
 46
1.0
 77
1
  4

 78
1
 79
1
170
1
 48
1.0
171
1
  6

172
1
173
1
174
1
140
1.0
141
1.0
175
1
  7

176
1
177
1
178
1
143
1.0
179
1
  8

270
1
271
1
272
1
145
1.0
146
1.0
273
1
  9

274
1
275
1
276
1
 42
1.0
 72
1
  3

 73
1
 74
1
 75
1
 94
63
  0
MATERIAL
  5
21
102
{ACAD_REACTORS
330
E
102
}
330
E
100
AcDbMaterial
  1
Global
  2

 70
0
 40
1.0
 71
1
 41
1.0
 91
-1023410177
 42
1.0
 72
1
  3

 73
1
 74
1
 75
1
 44
0.5
 73
0
 45
1.0
 46
1.0
 77
1
  4

 78
1
 79
1
170
1
 48
1.0
171
1
  6

172
1
173
1
174
1
140
1.0
141
1.0
175
1
  7

176
1
177
1
178
1
143
1.0
179
1
  8

270
1
271
1
272
1
145
1.0
146
1.0
273
1
  9

274
1
275
1
276
1
 42
1.0
 72
1
  3

 73
1
 74
1
 75
1
 94
63
  0
MLINESTYLE
  5
22
102
{ACAD_REACTORS
330
10
102
}
330
10
100
AcDbMlineStyle
  2
Standard
 70
0
  3

 62
256
 51
90.0
 52
90.0
 71
2
 49
0.5
 62
256
  6
BYLAYER
 49
-0.5
 62
256
  6
BYLAYER
  0
MLEADERSTYLE
  5
2C
102
{ACAD_REACTORS
330
F
102
}
330
F
100
AcDbMLeaderStyle
179
2
170
2
171
1
172
0
 90
2
 40
0.0
 41
0.0
173
1
 91
-1056964608
 92
-2
290
1
 42
2.0
291
1
 43
8.0
  3
Standard
 44
4.0
300

342
29
174
1
175
1
176
0
178
1
 93
-1056964608
 45
4.0
292
0
297
0
 46
4.0
 94
-1056964608
 47
1.0
 49
1.0
140
1.0
294
1
141
0.0
177
0
142
1.0
295
0
296
0
143
3.75
271
0
272
9
273
9
  0
DICTIONARY
  5
2D
330
A
100
AcDbDictionary
280
1
281
1
  3
CREATED_BY_EZDXF
350
2E
  3
WRITTEN_BY_EZDXF
350
43
  0
DICTIONARYVAR
  5
2E
330
2D
100
DictionaryVariables
280
0
  1
1.4.4 @ 2026-06-27T01:34:02.602777+00:00
  0
DICTIONARYVAR
  5
43
330
2D
100
DictionaryVariables
280
0
  1
1.4.4 @ 2026-06-27T01:34:02.993497+00:00
  0
ENDSEC
  0
EOF
